<svg width="54" height="65" viewBox="0 0 54 65" fill="none" xmlns="http://www.w3.org/2000/svg">
<mask id="mask0_18_100" style="mask-type:luminance" maskUnits="userSpaceOnUse" x="0" y="0" width="54" height="65">
<path d="M0 0H53.6067V65H0V0Z" fill="white"/>
</mask>
<g mask="url(#mask0_18_100)">
<path d="M46.3096 26.6305C46.3096 38.4851 35.5721 48.1068 22.3281 48.1068C16.1864 48.1068 10.331 46.1587 5.47438 42.4193C4.12445 41.367 2.86479 40.2117 1.81249 38.914C3.13704 43.3799 5.14995 47.7033 7.86392 51.5345C12.1225 57.5845 18.0427 62.4412 25.4046 64.921V54.9749C25.4046 54.209 26.0281 53.5855 26.794 53.5855C34.1954 53.5855 40.9084 50.5725 45.7637 45.7172C50.5935 40.8606 53.5938 34.1871 53.5938 26.7857C53.5938 19.3857 50.5808 12.6854 45.751 7.83019C40.8943 3.01302 34.1954 0 26.794 0C19.3927 0 12.7192 3.01302 7.86392 7.83019C3.00726 12.6854 -0.00434875 19.3984 -0.00434875 26.7998C-0.00434875 27.3316 0.0337372 27.8902 0.0337372 28.4488C0.56694 33.0699 3.26681 37.2001 7.20095 40.2117C7.66926 40.5756 8.16156 40.9001 8.65526 41.2372V24.1507C8.65526 19.5536 10.7726 15.3994 14.1354 12.3864C17.4715 9.41428 22.0686 7.55653 27.158 7.55653C30.9228 7.55653 34.4945 8.58203 37.4934 10.4003C40.505 12.2439 42.9072 14.8676 44.3361 18.0612C44.9596 19.3857 45.466 20.8006 45.7905 22.19C46.153 23.657 46.3096 25.1367 46.3096 26.6305Z" fill="#FFD900"/>
</g>
<path d="M22.3282 45.3011C34.0262 45.3011 43.5054 36.9405 43.5054 26.6305C43.5054 25.3455 43.3361 24.0858 43.0766 22.8657C42.7775 21.606 42.3487 20.3858 41.7915 19.2292L41.752 19.1911C40.5968 16.542 38.5444 14.3344 36.0392 12.8152C33.4945 11.2579 30.3912 10.3749 27.1581 10.3749C22.7951 10.3749 18.8356 11.959 15.9919 14.4769C13.213 16.944 11.4596 20.3858 11.4596 24.1507V42.8213C14.7576 44.3673 18.5239 45.3011 22.3282 45.3011ZM21.9389 30.9286C21.4452 31.1233 20.912 31.253 20.3548 31.253C18.0048 31.253 16.1216 29.3318 16.1216 27.0198C16.1216 24.6698 18.0048 22.7867 20.3548 22.7867C22.6654 22.7867 24.5866 24.6698 24.5866 27.0198C24.5866 27.9156 24.2889 28.7337 23.8206 29.4348C23.7557 28.7083 23.1323 28.1497 22.4058 28.1497C21.6131 28.1497 20.9515 28.7732 20.9515 29.5646C20.9388 30.2007 21.3676 30.7593 21.9389 30.9286ZM33.2603 31.253C30.9103 31.253 29.0271 29.3318 29.0271 27.0198C29.0271 24.6698 30.9103 22.7867 33.2603 22.7867C35.6103 22.7867 37.4935 24.6698 37.4935 27.0198C37.4935 27.9156 37.2339 28.7337 36.7275 29.4348C36.6626 28.7083 36.0392 28.1497 35.3113 28.1497C34.52 28.1497 33.8965 28.7732 33.8965 29.5646C33.8965 30.188 34.2985 30.7593 34.8839 30.9159C34.3902 31.1233 33.8316 31.253 33.2603 31.253Z" fill="#FFD900"/>
</svg>
